<svg xmlns="http://www.w3.org/2000/svg" width="1200" height="630" viewBox="0 0 1200 630" role="img" aria-label="From IT support to cybersecurity">
  <!-- Source for blog-it-to-cybersecurity.png. Fonts: Outfit, Inter, JetBrains Mono (self-hosted in web/assets/fonts). Re-render at 1200x630 after editing. -->
  <defs>
    <style>@font-face{font-family:'Outfit';font-weight:100 900;src:url('outfit-var.woff2') format('woff2');}@font-face{font-family:'Inter';font-weight:100 900;src:url('inter-var.woff2') format('woff2');}@font-face{font-family:'JetBrains Mono';font-weight:100 900;src:url('jetbrains-mono-var.woff2') format('woff2');}</style>
    <linearGradient id="fg" x1="0" x2="1"><stop offset="0" stop-color="#fff" stop-opacity="0"/><stop offset="1" stop-color="#fff" stop-opacity="1"/></linearGradient>
    <mask id="fade"><rect x="0" y="0" width="1200" height="630" fill="url(#fg)"/></mask>
  </defs>
  <rect width="1200" height="630" fill="#050505"/>
  <pattern id="p" width="28" height="28" patternUnits="userSpaceOnUse"><circle cx="14" cy="14" r="1.6" fill="#ef4444"/></pattern>
  <rect x="660" y="0" width="540" height="630" fill="url(#p)" opacity="0.28" mask="url(#fade)"/>
  <rect x="0" y="0" width="16" height="630" fill="#ef4444"/>
  <g class="illo" transform="translate(950,318) scale(0.92)">
    <circle r="215" fill="#ef4444" opacity="0.07"/><circle r="215" fill="none" stroke="#2a2a2a" stroke-width="2" stroke-linecap="round" stroke-linejoin="round"/><g transform="translate(-105,-10)"><rect x="-95" y="-70" width="190" height="130" rx="14" fill="none" stroke="#9a9a9a" stroke-width="6" stroke-linecap="round" stroke-linejoin="round"/><line x1="-40" y1="95" x2="40" y2="95" fill="none" stroke="#9a9a9a" stroke-width="6" stroke-linecap="round" stroke-linejoin="round"/><line x1="0" y1="60" x2="0" y2="95" fill="none" stroke="#9a9a9a" stroke-width="6" stroke-linecap="round" stroke-linejoin="round"/><line x1="-60" y1="-35" x2="-10" y2="-35" fill="none" stroke="#9a9a9a" stroke-width="5" stroke-linecap="round" stroke-linejoin="round"/><line x1="-60" y1="-5" x2="30" y2="-5" fill="none" stroke="#9a9a9a" stroke-width="5" stroke-linecap="round" stroke-linejoin="round"/><line x1="-60" y1="25" x2="0" y2="25" fill="none" stroke="#9a9a9a" stroke-width="5" stroke-linecap="round" stroke-linejoin="round"/></g>
    <path d="M10,-10 H60 M40,-35 L65,-10 L40,15" fill="none" stroke="#f5f5f5" stroke-width="6" stroke-linecap="round" stroke-linejoin="round"/>
    <g transform="translate(140,-10)"><path transform="scale(0.55)" d="M0,-170 L140,-112 V10 C140,110 60,162 0,180 C-60,162 -140,110 -140,10 V-112 Z" fill="#ef4444" fill="none" stroke="#ef4444" stroke-width="7" stroke-linecap="round" stroke-linejoin="round"/><path d="M-30,0 L-10,20 L32,-24" fill="none" stroke="#050505" stroke-width="9" stroke-linecap="round" stroke-linejoin="round"/></g>
  </g>
  <text class="p" x="84" y="94" font-family="JetBrains Mono" font-weight="500" font-size="24" fill="#ef4444">sarathg.me/blog</text>
  <text class="h" x="84" y="282" font-family="Outfit" font-weight="800" font-size="54" letter-spacing="-0.02em" fill="#f5f5f5">From IT support</text>
  <text class="h" x="84" y="340" font-family="Outfit" font-weight="800" font-size="54" letter-spacing="-0.02em" fill="#f5f5f5">to cybersecurity</text>
  <text class="s" x="84" y="388" font-family="Inter" font-weight="400" font-size="26" fill="#9a9a9a">A concrete, mostly free starting plan.</text>
  <text class="f" x="84" y="560" font-family="Inter" font-weight="600" font-size="24" fill="#f5f5f5">Sarath G</text>
  <text class="f" x="212" y="560" font-family="Inter" font-weight="400" font-size="24" fill="#9a9a9a">Cybersecurity consultant &amp; trainer</text>
</svg>
