<svg xmlns="http://www.w3.org/2000/svg" width="1200" height="630" viewBox="0 0 1200 630" role="img" aria-label="Wazuh SOC home lab">
  <!-- Source for wazuh.png. Fonts: Outfit, Inter, JetBrains Mono (self-hosted in web/assets/fonts). Re-render at 1200x630 after editing. -->
  <defs>
    <style>@font-face{font-family:'Outfit';font-weight:100 900;src:url('outfit-var.woff2') format('woff2');}@font-face{font-family:'Inter';font-weight:100 900;src:url('inter-var.woff2') format('woff2');}@font-face{font-family:'JetBrains Mono';font-weight:100 900;src:url('jetbrains-mono-var.woff2') format('woff2');}</style>
    <linearGradient id="fg" x1="0" x2="1"><stop offset="0" stop-color="#fff" stop-opacity="0"/><stop offset="1" stop-color="#fff" stop-opacity="1"/></linearGradient>
    <mask id="fade"><rect x="0" y="0" width="1200" height="630" fill="url(#fg)"/></mask>
  </defs>
  <rect width="1200" height="630" fill="#0d0f0e"/>
  <pattern id="p" width="18" height="18" patternUnits="userSpaceOnUse" patternTransform="rotate(45)"><rect width="6" height="18" fill="#ffb454"/></pattern>
  <polygon points="1000,0 1200,0 1200,630 880,630" fill="url(#p)" opacity="0.10"/>
  <rect x="0" y="0" width="16" height="630" fill="#ffb454"/>
  <g class="illo" transform="translate(950,318) scale(0.92)">
    <circle r="215" fill="#ffb454" opacity="0.07"/><circle r="215" fill="none" stroke="#262b27" stroke-width="2" stroke-linecap="round" stroke-linejoin="round"/><g transform="translate(-70,0)"><path transform="scale(0.95)" d="M0,-170 L140,-112 V10 C140,110 60,162 0,180 C-60,162 -140,110 -140,10 V-112 Z" fill="none" fill="none" stroke="#ffb454" stroke-width="7" stroke-linecap="round" stroke-linejoin="round"/><path d="M-80,0 C-50,-50 50,-50 80,0 C50,50 -50,50 -80,0 Z" fill="none" stroke="#e8e6df" stroke-width="6" stroke-linecap="round" stroke-linejoin="round"/><circle r="22" fill="#ffb454"/></g>
    <line x1="110" y1="-120" x2="210" y2="-120" fill="none" stroke="#8a9690" stroke-width="8" stroke-linecap="round" stroke-linejoin="round"/><line x1="110" y1="-60" x2="190" y2="-60" fill="none" stroke="#8a9690" stroke-width="8" stroke-linecap="round" stroke-linejoin="round"/><line x1="110" y1="0" x2="225" y2="0" fill="none" stroke="#e2554f" stroke-width="8" stroke-linecap="round" stroke-linejoin="round"/><line x1="110" y1="60" x2="200" y2="60" fill="none" stroke="#8a9690" stroke-width="8" stroke-linecap="round" stroke-linejoin="round"/><circle cx="95" cy="0" r="9" fill="#e2554f"/>
  </g>
  <text class="p" x="84" y="94" font-family="JetBrains Mono" font-weight="500" font-size="24" fill="#ffb454">sarathg.me/wazuh</text>
  <text class="h" x="84" y="264" font-family="Outfit" font-weight="800" font-size="54" letter-spacing="-0.02em" fill="#e8e6df">Wazuh SOC</text>
  <text class="h" x="84" y="322" font-family="Outfit" font-weight="800" font-size="54" letter-spacing="-0.02em" fill="#e8e6df">home lab</text>
  <text class="s" x="84" y="370" font-family="Inter" font-weight="400" font-size="26" fill="#8a9690">Build a home SIEM, run attacks</text>
  <text class="s" x="84" y="406" font-family="Inter" font-weight="400" font-size="26" fill="#8a9690">from Kali, detect it all. Free.</text>
  <text class="f" x="84" y="560" font-family="Inter" font-weight="600" font-size="24" fill="#e8e6df">Sarath G</text>
  <text class="f" x="212" y="560" font-family="Inter" font-weight="400" font-size="24" fill="#8a9690">Cybersecurity consultant &amp; trainer</text>
</svg>
